/* XPM */
static char *f70e5752dc2549549195b702d2babea5AvoPewdaJY60ceOJ[] = {
/* columns rows colors chars-per-pixel */
"16 16 142 2 ",
"   c None",
".  c #30230D",
"X  c #4E360C",
"o  c #453C2C",
"O  c #7E5915",
"+  c #5C5341",
"@  c #ED1D23",
"#  c #ED1E23",
"$  c #ED1F23",
"%  c #ED1C24",
"&  c #ED1D24",
"*  c #ED1E24",
"=  c #ED1F24",
"-  c #EE2323",
";  c #ED2523",
":  c #EE2723",
">  c #ED2024",
",  c #EF2124",
"<  c #ED2224",
"1  c #ED2324",
"2  c #EE2524",
"3  c #EE2724",
"4  c #EE2923",
"5  c #EE2C23",
"6  c #EF2F23",
"7  c #EE2A28",
"8  c #EF3222",
"9  c #EF3D23",
"0  c #EF362E",
"q  c #F03A22",
"w  c #F03B33",
"e  c #BA7B14",
"r  c #A27729",
"t  c #D05A1B",
"y  c #F35B1F",
"u  c #F3601F",
"i  c #F4641F",
"p  c #F5701E",
"a  c #F6781D",
"s  c #F67A1E",
"d  c #EF4A20",
"f  c #F04021",
"g  c #F14821",
"h  c #F14A21",
"j  c #F25221",
"k  c #F25822",
"l  c #F36120",
"z  c #F36921",
"x  c #F46028",
"c  c #F46B28",
"v  c #F46E29",
"b  c #F47322",
"n  c #F57B23",
"m  c #F57F21",
"M  c #F57F22",
"N  c #F46D39",
"B  c #DA8A16",
"V  c #D28F1F",
"C  c #DE9219",
"Z  c #F7881D",
"A  c #F78B1D",
"S  c #F78A1F",
"D  c #F78C1E",
"F  c #F78D1F",
"G  c #F78E1E",
"H  c #F78E1F",
"J  c #F1951B",
"K  c #F7911E",
"L  c #F8931B",
"P  c #F8911C",
"I  c #F8931E",
"U  c #F8941D",
"Y  c #F8951D",
"T  c #F8971C",
"R  c #F8961D",
"E  c #F8941E",
"W  c #F59D1A",
"Q  c #F99C19",
"!  c #F99F1B",
"~  c #F8981D",
"^  c #F99C1C",
"/  c #F99D1C",
"(  c #FAA319",
")  c #F9A01B",
"_  c #FAA11A",
"`  c #FAA01B",
"'  c #FAA11B",
"]  c #FAA21A",
"[  c #FAA31A",
"{  c #FAA21B",
"}  c #FBA21B",
"|  c #FAA419",
" . c #F9A41A",
".. c #FAA41A",
"X. c #FBA41A",
"o. c #FAA51A",
"O. c #FBA61C",
"+. c #C2933C",
"@. c #F68020",
"#. c #F58321",
"$. c #F58022",
"%. c #F68521",
"&. c #F68621",
"*. c #F58327",
"=. c #F68820",
"-. c #F68821",
";. c #F68A20",
":. c #F59724",
">. c #FA9922",
",. c #FA9923",
"<. c #FB9923",
"1. c #F08C3C",
"2. c #FBA521",
"3. c #FAA721",
"4. c #FAA825",
"5. c #E9A536",
"6. c #FAA239",
"7. c #FDAE3C",
"8. c #AF894B",
"9. c #C1944D",
"0. c #CE9B54",
"q. c #ED8944",
"w. c #F8995A",
"e. c #DEA854",
"r. c #EFA94D",
"t. c #FCB747",
"y. c #F8A152",
"u. c #FBAE56",
"i. c #F3AF5C",
"p. c #CFA96A",
"a. c #CEAA6F",
"s. c #F6A768",
"d. c #FBB563",
"f. c #F3BC62",
"g. c #FCBA6B",
"h. c #EBB574",
"j. c #FFC25F",
"k. c #FDC365",
"l. c #FDC66B",
"z. c #FFC971",
"x. c #FDCA8B",
"c. c #F9D499",
/* pixels */
"    H     < = = = = >        .  ",
"    &.&.u 1 = = = = > h P U }   ",
"    m $.H y < = = ; i U &.K     ",
"  $ j $.H } p 6 6 a } U =.a 6   ",
"  = 4 z =.} ! Z Z } } H H 9 $   ",
"= = = 2 k U } ~ ~ ! U A h = = = ",
"= = = = d W  .^ }  .2.c = = = = ",
"= = = , t O C } } e r q.> = = = ",
"= = = 2 1.V J } P B +.s.7 $ $ $ ",
"= = = ; w.7.>.O.>.>.z.d.w $ = $ ",
"= = = $ N i.0.5.e.r.l.u.0 $ = = ",
"  = = = x h.+ . o a.k.6.8 = =   ",
"  = = < v x.p.X 8.c.t.! q % =   ",
"    < q n y.g.9.f.k.2. .y =     ",
"      b $.m *.:.2. . .X.L       ",
"          $.$.S X. . .          "
};
