/* XPM */
static char *_268363b9835426db992da388116ff1bekxBRDp889wrOU3F[] = {
/* columns rows colors chars-per-pixel */
"32 32 140 2 ",
"   c None",
".  c #020202",
"X  c #08090A",
"o  c #161512",
"O  c #1B1810",
"+  c #221702",
"@  c #3E2A06",
"#  c #352405",
"$  c #2D281F",
"%  c #302A1D",
"&  c #342E24",
"*  c #393731",
"=  c #5A3E0C",
"-  c #4D3C1E",
";  c #513B12",
":  c #5D461E",
">  c #69490C",
",  c #44423C",
"<  c #765C2A",
"1  c #776139",
"2  c #716550",
"3  c #ED1F24",
"4  c #ED2224",
"5  c #EE2E23",
"6  c #EE282A",
"7  c #EF3322",
"8  c #EF3A23",
"9  c #F03C22",
"0  c #F03F33",
"q  c #97630D",
"w  c #956513",
"e  c #AB7212",
"r  c #A3701C",
"t  c #B67913",
"y  c #BA7D14",
"u  c #F35F1F",
"i  c #C07A15",
"p  c #F4641F",
"a  c #F56E1E",
"s  c #F5741D",
"d  c #F87F1D",
"f  c #EF4221",
"g  c #F14322",
"h  c #F14D21",
"j  c #F35620",
"k  c #F25C22",
"l  c #F1483E",
"z  c #F46925",
"x  c #F3652A",
"c  c #F46224",
"v  c #F47522",
"b  c #F57F21",
"n  c #F7772E",
"m  c #F67E3A",
"M  c #8E7447",
"N  c #8B7A5C",
"B  c #F25345",
"V  c #F67F45",
"C  c #AF812F",
"Z  c #C88517",
"A  c #CD8815",
"S  c #D68D17",
"D  c #D8921F",
"F  c #F7821D",
"G  c #F78C1F",
"H  c #F88D1C",
"J  c #ED9C19",
"K  c #F7911E",
"L  c #F8951D",
"P  c #F59F1A",
"I  c #F99C1C",
"U  c #FAA317",
"Y  c #F6A11A",
"T  c #FAA41A",
"R  c #FEA91A",
"E  c #F58122",
"W  c #F68920",
"Q  c #F58128",
"!  c #F89322",
"~  c #F9972C",
"^  c #F99E29",
"/  c #F68C34",
"(  c #F6813E",
")  c #FAA926",
"_  c #FBAC2D",
"`  c #F9A332",
"'  c #F5AC31",
"]  c #FBAE33",
"[  c #FAA83C",
"{  c #FEB135",
"}  c #FCB13B",
"|  c #9B8157",
" . c #AA8443",
".. c #B49053",
"X. c #A08B67",
"o. c #BB9E6B",
"O. c #BEA87F",
"+. c #C79C52",
"@. c #F89F4F",
"#. c #F89857",
"$. c #FCB44B",
"%. c #FBB442",
"&. c #E2AA58",
"*. c #F8A051",
"=. c #FAAD5C",
"-. c #FCB551",
";. c #F5B854",
":. c #FDBC54",
">. c #F5B058",
",. c #F5BC59",
"<. c #FCBD5B",
"1. c #DDAC66",
"2. c #FAAD63",
"3. c #E4B868",
"4. c #FBB467",
"5. c #FAB26A",
"6. c #F2BC65",
"7. c #ECBD70",
"8. c #FBBB71",
"9. c #FCBC7A",
"0. c #FFC15B",
"q. c #FCC365",
"w. c #FEC66B",
"e. c #FDC86F",
"r. c #FDC771",
"t. c #FEC975",
"y. c #FCC078",
"u. c #FDCB7A",
"i. c #FECD80",
"p. c #F7CE8A",
"a. c #FCC88A",
"s. c #FFD48D",
"d. c #E3C694",
"f. c #FED593",
"g. c #FED499",
"h. c #FDDA9F",
"j. c #F0D5A7",
"k. c #FFDBA1",
"l. c #FFDFAB",
"z. c #FFE2B2",
/* pixels */
"      I I I             3 3 3 3 3 3 3 3                   T     ",
"      L E W K     3 4 3 3 3 3 3 3 3 4 3 3 3 3         T T T     ",
"      L E b E W a 4 3 3 3 3 4 3 3 3 3 3 3 3 4 4 s T T I I T     ",
"        W b b W K p 3 3 3 3 3 3 3 3 3 3 3 3 9 s T L W W T       ",
"        L W b b W I u 3 3 3 3 3 3 3 3 3 4 j L T K E F I T       ",
"        z G b E E I I u 4 3 3 3 3 3 3 5 a T T I E b K T K       ",
"      3 8 F E E E I T T s 7 3 3 3 3 9 F T T T G b E I F 5       ",
"      4 4 z W b E I T T T F 9 3 3 9 H T T T I W E W I h 3 3     ",
"    3 3 3 7 E E b K T T T T H z c H T T T T ! b W T s 4 3 3     ",
"  3 4 3 3 3 g b E G T T I I T L I I I T T I W W I G 8 3 3 3 3   ",
"  3 3 3 3 3 3 7 k E I K K T T W L T I L I L H I H 9 3 3 3 3 3   ",
"  3 3 3 3 3 3 3 4 j W L T T T W I T T I W K T F 8 3 3 3 4 3 3   ",
"3 3 3 3 3 3 3 3 3 j I T T T T G I T T T I I H 5 3 3 3 3 3 3 3 3 ",
"3 3 3 3 3 3 3 3 4 d R R R T T I T T T R R _ [ 9 3 3 3 3 3 3 3 3 ",
"3 3 3 3 4 3 3 3 f i w r S T T I T T Y S Z D ,.x 3 3 3 3 4 3 3 3 ",
"4 3 3 3 3 3 3 3 j e O $ e T T T I T A # % < 3.n 3 3 3 3 3 3 3 3 ",
"3 3 3 3 3 3 3 3 c ' t t Y I T T K G Y y > C s.#.3 3 3 3 3 3 3 3 ",
"3 3 3 3 3 3 3 4 m r.R R L L T T L E L R J 6.f.#.3 3 3 3 3 3 3 3 ",
"3 4 3 3 3 3 3 4 V f.] P W I T T I W G U ] k.u.$.l 3 3 3 3 3 3 3 ",
"3 3 3 3 3 3 3 3 x a.w.L W Y T T T K E T e.l.$.<.l 3 3 3 3 3 3 3 ",
"  3 3 3 3 3 3 3 h *.u.! =.u.{ T :.t.~ ` k.r.) 9.0 3 3 3 3 3 3   ",
"  3 3 3 3 3 3 3 7 Q 8.>.| ..;._ 7.o.&.-.f._ q.4.5 3 3 3 3 3 3   ",
"  3 4 3 3 3 3 3 8 b 4.d., & ; = - * N s.w.%.u.^ 7 3 3 3 3 3 3   ",
"    3 3 3 3 3 3 f b =.p.2 X . . . o X.s.t.q._ I 9 3 3 4 3 3     ",
"      3 3 3 3 3 h E 5.l.j.M + . : O.k.u.i._ T T g 3 3 3 3 3     ",
"      3 3 4 3 3 k E 9.z.g.{ q @ J w.z.z.0.U T T u 3 3 3 3       ",
"        3 3 3 5 v b @.g.f.0.+.1 ,.t.l.s.} T T T p 3 3 3         ",
"          3 5 k E b b / 2.9.1. .u.r.:.) T T T T L 9 3           ",
"            z E b E b b b b G T T T U T T T T T T F             ",
"              E E b E b E b W T T T T T T T T T T               ",
"                  E b E b E E L T T T T T T T                   ",
"                        b E b G T T Y T                         "
};
