/* XPM */
static char *b0deb9e7d13b47eff6dd20b5e297ad93yaS4SElteqykzpdA[] = {
/* columns rows colors chars-per-pixel */
"60 60 172 2 ",
"   c None",
".  c #010101",
"X  c #0C0903",
"o  c #0C0C0C",
"O  c #07070A",
"+  c #100C04",
"@  c #181002",
"#  c #12110E",
"$  c #141311",
"%  c #18191B",
"&  c #2D1F04",
"*  c #2E2005",
"=  c #332408",
"-  c #2A261B",
";  c #3F3A2E",
":  c #373329",
">  c #333334",
",  c #3D3E3E",
"<  c #473108",
"1  c #483407",
"2  c #523A09",
"3  c #5A3E0A",
"4  c #493611",
"5  c #5E410D",
"6  c #69470C",
"7  c #6B4A0C",
"8  c #724E0C",
"9  c #77530C",
"0  c #7E5710",
"q  c #7A5718",
"w  c #564624",
"e  c #4C4638",
"r  c #414243",
"t  c #5E5E5D",
"y  c #605745",
"u  c #6D624D",
"i  c #656463",
"p  c #7D7462",
"a  c #757576",
"s  c #ED1F24",
"d  c #ED2324",
"f  c #EE2C23",
"g  c #EF3422",
"h  c #EF3922",
"j  c #EF342C",
"k  c #F03C22",
"l  c #82590E",
"z  c #895D0E",
"x  c #92620F",
"c  c #916619",
"v  c #A36F12",
"b  c #A37012",
"n  c #AE781A",
"m  c #B67A13",
"M  c #976D23",
"N  c #AB7820",
"B  c #F1471F",
"V  c #F3551E",
"C  c #F35D1F",
"Z  c #EF691E",
"A  c #F4641F",
"S  c #F56D1E",
"D  c #F5721E",
"F  c #F67D1E",
"G  c #EB4520",
"H  c #F04322",
"J  c #F14B22",
"K  c #F1462E",
"L  c #F25521",
"P  c #F25A21",
"I  c #F2532C",
"U  c #F36422",
"Y  c #F46E22",
"T  c #F47322",
"R  c #F57E22",
"E  c #8A7955",
"W  c #877B61",
"Q  c #F35C47",
"!  c #F46549",
"~  c #F57259",
"^  c #B88326",
"/  c #B0873E",
"(  c #CC8715",
")  c #CA8B17",
"_  c #D88E14",
"`  c #D79117",
"'  c #DE9417",
"]  c #F7831D",
"[  c #F9851D",
"{  c #F78D1F",
"}  c #F88D1C",
"|  c #E39718",
" . c #E69A19",
".. c #EC9D19",
"X. c #E99A15",
"o. c #F7911E",
"O. c #F8941D",
"+. c #F99C1C",
"@. c #FBA317",
"#. c #F5A21A",
"$. c #FAA41A",
"%. c #D59933",
"&. c #F58122",
"*. c #F68A20",
"=. c #F58528",
"-. c #F6892C",
";. c #E89E23",
":. c #F7912A",
">. c #F99D2C",
",. c #F99822",
"<. c #F68E36",
"1. c #F4A524",
"2. c #FAA623",
"3. c #FAA926",
"4. c #FBAB2C",
"5. c #FBAD34",
"6. c #FBA83F",
"7. c #FDB137",
"8. c #FBB13B",
"9. c #A98951",
"0. c #95876A",
"q. c #A49576",
"w. c #A89777",
"e. c #CA9E50",
"r. c #F79845",
"t. c #F89944",
"y. c #D7AA5F",
"u. c #FAA949",
"i. c #FBB442",
"p. c #FCB74A",
"a. c #FDB94D",
"s. c #F6B448",
"d. c #E2AF58",
"f. c #F9A554",
"g. c #FDBC53",
"h. c #FCBF5C",
"j. c #FBB554",
"k. c #C6A871",
"l. c #FAAF66",
"z. c #EDBA64",
"x. c #F7BE61",
"c. c #FAB36D",
"v. c #FCB964",
"b. c #E2B970",
"n. c #FBBD7C",
"m. c #FBB677",
"M. c #FCC164",
"N. c #FDC56C",
"B. c #FDC672",
"V. c #FDC872",
"C. c #FDC778",
"Z. c #FDCB7C",
"A. c #F1C57B",
"S. c #BDAB87",
"D. c #DABB85",
"F. c #D2BC94",
"G. c #E5BF81",
"H. c #DFC99F",
"J. c #DCC69B",
"K. c #FCC283",
"L. c #FDCE83",
"P. c #FCC688",
"I. c #FDCE88",
"U. c #FED28B",
"Y. c #FDCD91",
"T. c #FED593",
"R. c #FDD79B",
"E. c #FEDA9D",
"W. c #FFDCA5",
"Q. c #FEDEAA",
"!. c #FFE0AF",
"~. c #FFE1B1",
/* pixels */
"            $.$.$.$.                              s s s s s s s s s s                                         $.        ",
"            $.O.o.O.$.$.                  s s s s s s s s s s s s d s s s s d                           $.$.$.$.        ",
"            +.&.R &.&.,.+.$.        d s s s s s s d s s s s s s s s s s s s s s s s                   $.$.$.$.$.        ",
"            +.&.R R R R *.+.$.  s s s s s s s s s s s s s s s s s s s s s s s s s s s s           $.$.$.$.$.$.$.        ",
"            $.*.R &.&.&.&.&.O.} g s s s s s s s s s s s s s s d s s s s d s s s s s s s s f   $.$.$.$.$.+.O.$.$.        ",
"            $.O.&.&.R &.&.R *.2.&.f s d s s s s s s s s s s s s s s s s s s s s s d s d H F $.$.$.+.O.*.*.+.$.          ",
"              $.*.R &.&.&.&.R *.$.F f s s s s s s s s s s s s s s s s s s s s s s s f S +.$.$.$.o.*.&.&.+.$.$.          ",
"              $.*.R R R &.R &.&.+.$.D d s s s s s s s s s s s s s s s s s s s s s H ] $.$.$.+.] R &.&.*.$.$.$.          ",
"                +.&.&.&.&.&.R R } $.$.A d s s s s s s s s s s s s s s s s s s d A +.$.$.$.,.&.&.&.R *.+.$.$.            ",
"                O.*.R &.R &.&.&.*.+.$.$.D d s s d s s s s s s s s s s s s s k ] $.$.$.$.+.&.&.&.&.&.O.$.$.$.            ",
"              s S O.&.&.&.R &.R &.+.$.$.@.D f s s s s s s s s s s s s d d J O.$.$.$.$.$.{ &.&.R *.*.$.$.$.              ",
"            s s k O.*.R &.R &.&.&.+.$.$.$.$.] k s s s s s s s s s s s d A +.$.$.$.$.$.+.&.&.&.R &.O.$.$.D d             ",
"            s s d D O.&.&.&.R &.R O.$.$.$.$.$.O.J d s s s s s s s s f D $.$.$.$.$.$.$.O.R &.&.&.*.+.$.O.h s             ",
"          s s s s H +.*.&.R &.R &.O.$.$.$.$.$.$.+.S f s s s s s s g ] #.$.$.$.$.$.$.$.*.R &.R &.O.$.$.P s s s           ",
"        s s s d d s S O.R &.&.&.&.O.$.$.$.$.$.$.$.$.F k s s s s h ] $.$.$.$.$.$.$.$.+.&.R &.&.] $.$.} f s s s s         ",
"        s s s s s s k O.*.&.R &.&.*.$.$.$.$.$.$.$.$.$.} J H k H [ $.$.$.$.$.$.$.$.$.o.&.R R *.+.$.+.J s s s s s         ",
"      s s s s s s s d V O.*.R R &.*.$.$.$.$.$.$.$.$.+.$.+.+.+.+.$.$.$.$.$.$.$.$.$.+.*.R &.&.+.$.$.Y d s s s s s s       ",
"      s s s s s s s s d U *.&.R &.&.+.$.$.$.$.$.+.*.+.$.+.+.+.$.+.O.+.$.$.$.$.$.$.O.R R &.o.$.$.} g s s s s s s s       ",
"    s s s s s s s s s s d P ] *.R R O.$.$.$.+.} O.$.$.$.*.R *.$.$.+.,.*.+.$.$.$.+.*.R &.O.$.$.O.k s s s s s s s s s     ",
"    s s s d s s s s s s s d k P R *.*.$.$.*.&.O.$.$.$.$.*.R *.$.$.$.$.} *.O.$.$.{ &.*.+.$.$.} B s s d s s s s s s s     ",
"    s s s s s s s s s s s s s s k Y *.O.&.*.O.$.$.$.$.$.O.R O.$.$.$.$.$.O.&.*.O.*.O.$.$.$.{ k s s s s s s s s s s s     ",
"  s s s s s s s s s s s s s s s s f R *.&.+.$.$.$.$.$.$.*.&.O.$.$.$.$.$.$.O.&.&.O.$.$.$.F h s s s s s s s s s s s d s   ",
"  s s s s s s d s s s s s s s s s d T *.+.$.$.$.$.$.$.$.*.&.+.$.$.$.$.$.$.$.+.&.O.$.+.S d s s s s s s s s s s s s s s   ",
"  s d s s s s s s s s s s s s s s h O.$.$.$.$.$.$.$.$.$.O.*.+.$.$.$.$.$.$.$.$.$.$.$.] d s s s s s s s s s s d s s s s   ",
"  s s s s s s s s s s s s s s s d P $.$.$.$.$.$.$.$.$.$.+.*.$.$.$.$.$.$.$.$.$.$.7.4.O.k s s s s s s s s s s s s s s s   ",
"s s s s s s s s d s s s s s s s f &.$.$.$.$.$.$.$.$.$.$.+.*.$.$.$.$.$.$.$.$.$.$.4.N.4.P s s s s s s s s s s s s s s s s ",
"s s s d s s s s s s s s s s s s G  .$.#.$.$.$.$.$.$.$.$.+.+.$.$.$.$.$.$.$.$.$.$.$.M.B.[ s s s s s s s s s s s s s s d s ",
"s s s s s s s s s s s s s s s d A v 8 6 2 q v ..$.$.$.$.+.$.$.$.$.$.$.$.| ( ( _ X.s.T.,.g s s s d s s s s s s s s s s s ",
"s s s s s s s s s s s s s s s d [ ` * % > r + v $.$.$.$.$.+.$.+.$.$. .9 & @ : u 4 / W.5.B s s s s s s s s d s s s s s s ",
"s s s s s s s s s s s s s s s f } $.z X O X 2  .$.,.$.$.$.$.+.*.+.$.| 7 X . : p q e.W.7.V s s s s s s s s s s s s s s s ",
"s s s s s s s d s s s s s s s h +.4.;.x 7 z | $.+.O.$.$.$.$.$.&.} $.$.#.v 2 1 9 ) Z.Q.8.V s s d s s s s s s s s s s s s ",
"s s s s s s s s s s s s s s s B 2.V.7.$.$.$.$.$.*.O.$.$.$.$.$.*.&.o.$.$.#.) z 0 %.W.Q.Z.I s s s s s s s s s s s s s s s ",
"s s s s s s s s s s s s s s s L i.Q.i.+.@.$.$.+.*.O.$.$.$.$.$.} R &.+.$.$.$.$.#.M.~.U.B.~ s s s s s s s s s s s s s s s ",
"s s d s s s d s s s s s s s d P j.~.h.$.$.$.$.*.&.+.$.$.$.$.$.o.R &.*.$.$.$.$.8.W.~.L.8.m.j s s s s s s s s s s s d s s ",
"s s s s s s s s s s s s s s s P j.~.U.2.$.$.+.R *.$.$.$.$.$.$.O.R &.*.+.$.$.2.Z.~.~.C.3.P.Q s s s s s s s s s s s s s s ",
"  s s s s s s s s s s s s s d P t.Q.W.8.@.$.} R O.$.$.$.$.$.$.$.*.&.&.O.$.$.i.W.~.W.i.2.U.~ s s s d s s s s s s s s s   ",
"  s s d s s s s s s s s s s s J =.P.~.B.#.+.R R +.$.$.$.$.$.$.$.+.*.R *.$.3.I.~.~.Z.$.4.W.~ s s s s s s s s s s s s d   ",
"  s s s s s s s s s s s s s s H R f.Q.R.4.o.R ;.i.4.$.$.$.$.$.2.5.,.&.*.@.i.Q.~.W.8.$.p.W.! s s s s s s s s d s s s s   ",
"  s s s s s s s s s s s s s s f T =.G.Q.p.} &.n.~.R.p.$.$.$.5.L.W.N.,.] #.N.~.~.M.$.$.L.I.K s s s s s s s s s s s s s   ",
"    s s s s s s s s s s s s s d P R t.Q.x.] u.D.b.E.W.i.@.4.U.~.E.R.8.{ 2.U.~.Z.3.@.p.W.l.f s s s s s s s s s s s s     ",
"    s s s s s s s s s s s s s s H &.-.P.C.u.A.e 5 %.L.g.@.7.T.x.^ E A.2.5.E.W.8.@.4.T.T.4.g s s s s s s s s s s s s     ",
"    d s s s s s s s s d s s s s J &.R c.T.R.q.t r = l N m n M 5 e i w.L.s.Q.L.$.$.C.!.a.O.h s s d s s s s s s s s d     ",
"      s s s s s s s s s s s s s P &.F l.!.!.0.> a r $ . . X $ , a > y Q.V.W.h.$.g.W.M.$.+.k s s s s s s s s s s s       ",
"      s s s s s s s s s s s s d U &.F l.E.E.S.# . o o . . . o o . . u Q.B.W.i.8.T.M.#.$.+.h s s s s s s s s s s s       ",
"        s s s s s s s s s s s d T &.R c.U.h.Q.0.$ . . . . . . . . ; F.T.a.W.g.L.N.$.$.$.$.J s s s s s s s s s s         ",
"        s d s s s s s s s s s g T &.R c.E.L.Q.!.q.: . . . . X ; W J.~.C.8.W.I.M.$.@.$.$.$.V s s s s s s d s s s         ",
"          s s s s s s s s s s h R R R m.~.~.~.!.W.d.0 X . X c x.!.~.!.!.T.W.V.$.$.$.$.$.$.C s s s s s s s s s           ",
"            s s s s s s s s s J &.&.&.A.~.!.!.!.M.$.#.7 . < ..$.g.W.!.!.~.Q.8.$.$.$.$.$.$.S s s s s s s s s             ",
"            s s s s s s s s s P &.&.=.P.~.~.~.R.4.@.@.m X l @.$.$.L.~.!.!.W.8.$.$.$.$.$.$.} d s s s d s s s             ",
"              s s s s s s s f T &.R &.r.Y.~.~.R.g.i.a.y.- 9.g.8.i.U.~.!.!.U.4.$.$.$.$.$.$.+.h s s s s s s               ",
"                s s s s s s J &.&.&.&.R <.m.W.Q.!.Q.!.H.; S.~.W.!.~.Q.T.h.4.$.$.$.$.$.$.$.$.V s s s s s                 ",
"                  s s s s H R R &.R R &.R R <.f.n.P.T.D.w k.T.U.L.M.8.4.$.$.$.$.$.$.$.$.$.$.} f s s s                   ",
"                    d j L R &.R R &.&.&.R R R R &.=.:.1.| 1.3.$.$.$.@.$.#.$.$.$.$.$.$.$.$.$.$.D f s                     ",
"                      Y R R =.&.&.&.R R R R &.&.R &.&.O.$.$.$.$.$.$.$.$.$.$.$.$.$.$.$.$.$.$.$.$.S                       ",
"                          R R &.&.R R &.&.&.&.R R &.&.*.$.$.$.$.$.$.$.$.$.$.$.$.$.$.$.$.$.$.$.                          ",
"                            &.&.R =.&.&.R R &.&.&.&.&.&.+.$.$.$.$.$.$.$.$.$.$.$.$.$.$.$.$.$.                            ",
"                                R &.R &.&.R &.&.&.&.R =.,.$.$.$.$.$.$.$.$.$.$.$.$.$.$.$.                                ",
"                                    R &.&.R &.R R &.R R *.+.$.$.$.$.$.$.$.$.$.$.$.$.                                    ",
"                                          &.&.&.&.R R &.&.,.$.$.$.$.$.$.$.$.$.                                          ",
"                                                  &.R &.R *.$.$.$.$.$.                                                  "
};
