<?xml version="1.0" encoding="utf-8"?>
<!-- Generator: Adobe Illustrator 21.1.0, SVG Export Plug-In . SVG Version: 6.00 Build 0)  -->
<svg version="1.1" id="Layer_1" xmlns="http://www.w3.org/2000/svg" xmlns:xlink="http://www.w3.org/1999/xlink" x="0px" y="0px"
	 viewBox="0 0 1000 1000" style="enable-background:new 0 0 1000 1000;" xml:space="preserve">
<style type="text/css">
	.st0{fill:#FECA4A;}
	.st1{fill:#C1731E;}
	.st2{fill:#E3A127;}
	.st3{fill:#FFFFFF;}
</style>
<g>
	<path class="st0" d="M966.2,500c0,11.4-0.4,22.8-1.3,34c-3.5,50.4-15.2,98.6-33.6,143.3c-4.2,10.3-8.8,20.3-13.8,30.2
		c-10.1,20.3-21.7,39.8-34.6,58.4c-56.3,81.1-137.8,143.4-233.1,175.8h-0.1c-4.4,1.5-8.8,2.9-13.2,4.2
		c-43.2,13.4-89.1,20.5-136.7,20.5c-52.6,0-103.2-8.8-150.3-24.8c-0.3-0.1-0.6-0.2-1-0.3C243.8,905.1,155.6,832.8,99.6,739
		c-6.2-10.2-11.8-20.7-17.2-31.4c-5.2-10.3-10-21-14.4-31.7c-18-44.4-29.4-92-33.1-142c-0.8-11.1-1.2-22.5-1.2-33.9
		C33.8,242.5,242.4,33.7,500,33.7C757.4,33.7,966.2,242.5,966.2,500z"/>
	<g>
		<path class="st1" d="M531.9,60.4L500,220.8L468.1,60.4C489.4,48.8,510.6,48.8,531.9,60.4z"/>
		<path class="st1" d="M287.9,190l50.2,75.1L263,214.9C266.8,202.1,275.1,193.8,287.9,190z"/>
		<path class="st1" d="M345.7,115.2L386,241.4l-85.5-101.2C311.1,123.7,326.1,115.4,345.7,115.2z"/>
		<path class="st1" d="M433.3,136.5l11.3,78.8L404,146.8C411.9,138.1,421.6,134.6,433.3,136.5z"/>
		<path class="st1" d="M198.8,187l143.7,146.2l-188.7-80.2C156.8,222.9,171.8,200.9,198.8,187z"/>
		<path class="st1" d="M198.5,316l90.9,47.7l-102.2-9.3C184,339.5,187.8,326.7,198.5,316z"/>
		<path class="st1" d="M79.9,363.8l159.7,48.1l-166,16.6C64,405.8,66,384.2,79.9,363.8z"/>
		<path class="st1" d="M919.7,363.8L760,411.9l166,16.6C935.6,405.8,933.5,384.2,919.7,363.8z"/>
		<path class="st1" d="M712.5,190l-50.2,75.1l75.1-50.2C733.6,202.1,725.3,193.8,712.5,190z"/>
		<path class="st1" d="M654.6,115.2l-40.3,126.2l85.5-101.2C689.3,123.7,674.2,115.4,654.6,115.2z"/>
		<path class="st1" d="M567.1,136.5l-11.3,78.8l40.6-68.5C588.5,138.1,578.7,134.6,567.1,136.5z"/>
		<path class="st1" d="M801.5,187L657.8,333.2l188.7-80.2C843.5,222.9,828.5,200.9,801.5,187z"/>
		<path class="st1" d="M801.8,316l-90.9,47.7l102.2-9.3C816.3,339.5,812.6,326.7,801.8,316z"/>
	</g>
	<g>
		<path class="st2" d="M463.4,832.3c-7.1,3.8-15,5.3-22.9,4.9c-12.3-0.6-22.7,3.8-30.4,12.8c-7.1,8.3-13.7,17.4-19,27.1
			c-12.4,22.6-26.7,43.8-42.4,64.1C243.8,905.1,155.6,832.8,99.6,739c0.6-12.8,1.2-25.7,1.7-38.6c1.3-30.7,2.3-61.4,3.8-92
			c0.6-14.2,13.4-24.1,26.9-21.6c9.6,1.9,15.9,9.9,16.1,22c0.7,41.8,1.2,83.6,1.9,125.4c0,3.1-0.1,6.4,0.8,9.3
			c0.6,2,2.7,3.5,4.1,5.3c1.6-1.7,3.8-3.1,4.8-5.2c1-2,0.9-4.6,0.9-7c1-54.9,1.9-109.7,3.3-164.5c0.2-7.9,2.1-16.1,5.1-23.4
			c5.1-12.3,17.1-17.5,30-14.7c8.6,1.8,14.3,8.9,15.6,19.7c0.6,4.6,0.9,9.2,0.9,13.9c0.1,49.4-0.1,98.9,0.1,148.3
			c0,3.5,0.3,7.3,1.6,10.5c2,5.3,8.1,5.7,10.6,0.7c1.6-3.2,2.2-7.1,2.3-10.8c0.8-52.4,1.3-104.9,2-157.3c0.1-10.2,0.3-20.4,0.6-30.6
			c0.2-8.7,3-16.4,11.3-20.4c9-4.3,18.3-4.1,27.1,1.2c6.1,3.7,7.7,10.2,8.4,16.7c0.6,5.6,0.8,11.4,0.8,17
			c0.1,57.2,0.1,114.5,0.1,171.7c0,2.8-0.1,5.7,0.1,8.5c0.2,4.6,2.6,7.6,6.7,8.3c3.7,0.7,7.5-1.7,8.9-5.9c0.8-2.4,0.9-5,0.9-7.5
			c0.8-50.3,1.5-100.7,2.2-151c0.1-3.1,0.5-6.3,1.2-9.3c3.9-16,16.7-23.1,32.6-18.6c6.6,1.9,11,5.9,12.1,12.4
			c1.4,8.9,2.6,17.8,2.5,26.8c-0.2,56.3-0.7,112.7-1.2,169c-0.1,10.3-0.5,20.7-0.2,31c0.4,13.4,7,23.6,17.9,30.9
			c7,4.7,14.6,4.5,21.6,0.1c6.4-4.1,12.3-9.1,18.3-13.6c8.6-6.5,17-13.9,28.2-14.7c8.7-0.7,17.7-0.7,26.3,0.6
			c11.3,1.7,18.9,11,20.4,22.2C480.4,815.2,474.4,826.4,463.4,832.3z"/>
		<path class="st2" d="M883,765.8c-56.3,81.1-137.8,143.4-233.1,175.8h-0.1c-4.4,1.5-8.8,2.9-13.2,4.2c-17.7-20.4-32.5-43-45.3-66.9
			c-6.5-12.2-13.5-24-24.4-33c-7.4-6-15.7-9-25.3-8.7c-7.5,0.3-14.9-0.8-21.9-3.9c-12.5-5.7-19.5-18.3-17.1-30.9
			c2.4-12.9,12.8-20.9,26.9-22.3c18.1-1.7,33.7,2.9,47.3,15c4.4,4,9.3,7.5,14.1,11.2c12,9.2,23.7,8.2,33.8-3.1
			c7-7.8,11-16.8,10.9-27.7c-0.8-64.7-1.3-129.4-1.7-194.2c-0.1-8.4,0.4-16.8,1.6-25c1.9-13.6,9.1-19,22.9-18.3
			c14.3,0.7,23.6,10.9,23.9,27.2c0.8,39.2,1.4,78.4,2,117.7c0.2,12-0.1,24,0.2,36c0,2.7,0.6,5.7,1.7,8.2c1.5,3.2,4.5,4.9,8.1,4.3
			c4-0.8,6.4-3.3,6.7-7.4c0.2-3.1,0.2-6.3,0.2-9.5c0-59.2,0-118.4,0.1-177.6c0.1-4.2,0.3-8.4,0.9-12.5c2-14.4,10.7-20.7,27.1-18.9
			c12.4,1.3,19.3,10,19.5,22.9c0.8,62.9,1.6,125.8,2.6,188.8c0.1,3.2,0.6,6.6,2,9.5c0.8,1.8,3.7,3.8,5.5,3.7c2-0.2,4.5-2.3,5.5-4.2
			c1.2-2.4,1.5-5.5,1.5-8.2c0.1-51,0.1-101.9,0.1-152.9c0-4.2,0.3-8.4,1-12.5c1.6-8.8,5.4-16.2,14.9-18.2
			c10.3-2.1,19.8-0.2,26.9,8.3c5.4,6.6,8,14.5,8.3,22.8c0.8,20.3,1.3,40.7,1.7,61.1c0.8,37.2,1.3,74.3,2.1,111.5
			c0.1,2.7,0.8,5.6,1.9,8.2c0.5,1.2,2.4,2.6,3.7,2.5c1.2-0.1,3.1-1.6,3.4-2.8c0.9-3.3,1.5-6.7,1.5-10.1c0.2-32.5,0.1-65,0.4-97.5
			c0.1-11.5,0.7-23.1,2.4-34.5c1.7-11.6,9.4-17.6,19.5-17.3c10.9,0.3,20.3,7.9,21.9,18.4c1,6.3,1.3,12.8,1.6,19.2
			c1.3,34.7,2.4,69.4,3.9,104.2C881.6,740.7,882.3,753.2,883,765.8z"/>
	</g>
	<g>
		<path class="st3" d="M643.3,324.5c0,6.3-3.8,10-10,10H478.2v125.7h117.6c6.3,0,10,3.7,10,10v62.6c0,6.9-3.8,10-10,10H478.2v199.6
			c0,6.3-3.8,10-10,10h-65.1c-6.9,0-10-3.8-10-10V262c0-6.3,3.1-10,10-10h230.2c6.3,0,10,3.8,10,10V324.5z"/>
	</g>
</g>
</svg>
